<svg width="83" height="34" viewBox="0 0 83 34" fill="none" xmlns="http://www.w3.org/2000/svg">
<path d="M29.0302 22.1339C28.2885 22.1339 27.6483 21.9877 27.1097 21.6953C26.5742 21.3999 26.1618 20.9798 25.8725 20.435C25.5863 19.8872 25.4432 19.2363 25.4432 18.4822C25.4432 17.7498 25.5878 17.1096 25.8771 16.5618C26.1664 16.0109 26.5742 15.5831 27.1005 15.2784C27.6268 14.9706 28.2469 14.8168 28.9609 14.8168C29.4657 14.8168 29.9273 14.8952 30.3459 15.0522C30.7644 15.2092 31.1261 15.4415 31.4308 15.7493C31.7354 16.0571 31.9724 16.4371 32.1417 16.8896C32.311 17.3389 32.3956 17.8544 32.3956 18.4361V18.9993H26.2326V17.6882H30.2951C30.292 17.4482 30.2351 17.2343 30.1243 17.0465C30.0135 16.8588 29.8612 16.7126 29.6673 16.608C29.4764 16.5002 29.2564 16.4464 29.0071 16.4464C28.7547 16.4464 28.5285 16.5033 28.3285 16.6172C28.1284 16.728 27.9699 16.8803 27.853 17.0742C27.736 17.265 27.6745 17.482 27.6683 17.7251V19.0593C27.6683 19.3486 27.7253 19.6025 27.8391 19.821C27.953 20.0365 28.1146 20.2042 28.3239 20.3242C28.5331 20.4442 28.7824 20.5043 29.0717 20.5043C29.2718 20.5043 29.4534 20.4766 29.6165 20.4212C29.7796 20.3658 29.9196 20.2842 30.0366 20.1765C30.1535 20.0688 30.2412 19.9364 30.2997 19.7795L32.3725 19.8395C32.2863 20.3042 32.0971 20.7089 31.8047 21.0536C31.5154 21.3952 31.1353 21.6615 30.6644 21.8523C30.1935 22.04 29.6488 22.1339 29.0302 22.1339ZM36.1384 22.1016C35.6152 22.1016 35.1397 21.9661 34.7119 21.6953C34.2841 21.4245 33.9425 21.0182 33.6871 20.4766C33.4316 19.9349 33.3039 19.2624 33.3039 18.4592C33.3039 17.6251 33.4362 16.9388 33.7009 16.4002C33.9656 15.8616 34.3118 15.4631 34.7396 15.2045C35.1705 14.946 35.6337 14.8168 36.1292 14.8168C36.5016 14.8168 36.8201 14.8814 37.0848 15.0107C37.3495 15.1368 37.568 15.3 37.7403 15.5C37.9127 15.7 38.0435 15.9078 38.1327 16.1232H38.1789V12.5455H40.4363V22H38.202V20.8505H38.1327C38.0373 21.069 37.9019 21.2737 37.7265 21.4645C37.551 21.6553 37.331 21.8092 37.0663 21.9261C36.8047 22.0431 36.4954 22.1016 36.1384 22.1016ZM36.9232 20.3427C37.1971 20.3427 37.431 20.2657 37.6249 20.1119C37.8188 19.9549 37.9681 19.7348 38.0727 19.4517C38.1773 19.1686 38.2297 18.8362 38.2297 18.4545C38.2297 18.0668 38.1773 17.7328 38.0727 17.4528C37.9711 17.1727 37.8219 16.9573 37.6249 16.8065C37.431 16.6557 37.1971 16.5803 36.9232 16.5803C36.6431 16.5803 36.4062 16.6572 36.2123 16.8111C36.0184 16.965 35.8706 17.1819 35.7691 17.462C35.6706 17.7421 35.6214 18.0729 35.6214 18.4545C35.6214 18.8362 35.6721 19.1686 35.7737 19.4517C35.8753 19.7348 36.0215 19.9549 36.2123 20.1119C36.4062 20.2657 36.6431 20.3427 36.9232 20.3427ZM41.864 22V14.9091H44.1214V22H41.864ZM42.995 14.0827C42.678 14.0827 42.4057 13.9781 42.1779 13.7688C41.9502 13.5565 41.8363 13.301 41.8363 13.0025C41.8363 12.707 41.9502 12.4547 42.1779 12.2454C42.4057 12.033 42.678 11.9268 42.995 11.9268C43.3151 11.9268 43.5875 12.033 43.8121 12.2454C44.0399 12.4547 44.1538 12.707 44.1538 13.0025C44.1538 13.301 44.0399 13.5565 43.8121 13.7688C43.5875 13.9781 43.3151 14.0827 42.995 14.0827ZM45.5583 22V12.5455H49.5008C50.2087 12.5455 50.8011 12.6455 51.2781 12.8455C51.7583 13.0456 52.1183 13.3256 52.3584 13.6857C52.6015 14.0458 52.7231 14.4628 52.7231 14.9368C52.7231 15.2969 52.6477 15.6185 52.4969 15.9016C52.3461 16.1817 52.1383 16.4141 51.8737 16.5987C51.609 16.7834 51.3028 16.9126 50.955 16.9865V17.0788C51.3366 17.0973 51.689 17.2004 52.0122 17.3881C52.3384 17.5759 52.6 17.8375 52.797 18.1729C52.9939 18.5053 53.0924 18.8993 53.0924 19.3548C53.0924 19.8626 52.9632 20.3165 52.7046 20.7166C52.4461 21.1136 52.0722 21.4276 51.5828 21.6584C51.0935 21.8861 50.4995 22 49.8009 22H45.5583ZM47.8435 20.158H49.2561C49.7516 20.158 50.1163 20.0642 50.3502 19.8764C50.5872 19.6887 50.7057 19.4271 50.7057 19.0916C50.7057 18.8485 50.6488 18.6392 50.5349 18.4638C50.421 18.2853 50.2594 18.1483 50.0502 18.0529C49.8409 17.9544 49.5901 17.9052 49.2977 17.9052H47.8435V20.158ZM47.8435 16.4325H49.1084C49.3577 16.4325 49.5793 16.391 49.7732 16.3079C49.9671 16.2248 50.1179 16.1048 50.2256 15.9478C50.3364 15.7908 50.3918 15.6016 50.3918 15.38C50.3918 15.063 50.2794 14.8137 50.0548 14.6321C49.8301 14.4505 49.527 14.3597 49.1453 14.3597H47.8435V16.4325ZM57.5012 22.1339C56.7564 22.1339 56.1162 21.9815 55.5807 21.6768C55.0483 21.3691 54.6374 20.9413 54.3481 20.3935C54.0619 19.8426 53.9188 19.204 53.9188 18.4776C53.9188 17.7482 54.0619 17.1096 54.3481 16.5618C54.6374 16.0109 55.0483 15.5831 55.5807 15.2784C56.1162 14.9706 56.7564 14.8168 57.5012 14.8168C58.2459 14.8168 58.8846 14.9706 59.417 15.2784C59.9525 15.5831 60.3634 16.0109 60.6496 16.5618C60.9389 17.1096 61.0835 17.7482 61.0835 18.4776C61.0835 19.204 60.9389 19.8426 60.6496 20.3935C60.3634 20.9413 59.9525 21.3691 59.417 21.6768C58.8846 21.9815 58.2459 22.1339 57.5012 22.1339ZM57.515 20.4304C57.7858 20.4304 58.0151 20.3473 58.2029 20.1811C58.3906 20.0149 58.5337 19.7841 58.6322 19.4886C58.7338 19.1932 58.7845 18.8516 58.7845 18.4638C58.7845 18.0698 58.7338 17.7251 58.6322 17.4297C58.5337 17.1342 58.3906 16.9034 58.2029 16.7372C58.0151 16.571 57.7858 16.4879 57.515 16.4879C57.2349 16.4879 56.998 16.571 56.8041 16.7372C56.6133 16.9034 56.4671 17.1342 56.3655 17.4297C56.267 17.7251 56.2178 18.0698 56.2178 18.4638C56.2178 18.8516 56.267 19.1932 56.3655 19.4886C56.4671 19.7841 56.6133 20.0149 56.8041 20.1811C56.998 20.3473 57.2349 20.4304 57.515 20.4304ZM65.55 22.1339C64.8052 22.1339 64.165 21.9815 63.6295 21.6768C63.0971 21.3691 62.6862 20.9413 62.3969 20.3935C62.1107 19.8426 61.9676 19.204 61.9676 18.4776C61.9676 17.7482 62.1107 17.1096 62.3969 16.5618C62.6862 16.0109 63.0971 15.5831 63.6295 15.2784C64.165 14.9706 64.8052 14.8168 65.55 14.8168C66.2948 14.8168 66.9334 14.9706 67.4658 15.2784C68.0013 15.5831 68.4122 16.0109 68.6984 16.5618C68.9877 17.1096 69.1324 17.7482 69.1324 18.4776C69.1324 19.204 68.9877 19.8426 68.6984 20.3935C68.4122 20.9413 68.0013 21.3691 67.4658 21.6768C66.9334 21.9815 66.2948 22.1339 65.55 22.1339ZM65.5638 20.4304C65.8347 20.4304 66.064 20.3473 66.2517 20.1811C66.4394 20.0149 66.5825 19.7841 66.681 19.4886C66.7826 19.1932 66.8334 18.8516 66.8334 18.4638C66.8334 18.0698 66.7826 17.7251 66.681 17.4297C66.5825 17.1342 66.4394 16.9034 66.2517 16.7372C66.064 16.571 65.8347 16.4879 65.5638 16.4879C65.2838 16.4879 65.0468 16.571 64.8529 16.7372C64.6621 16.9034 64.5159 17.1342 64.4143 17.4297C64.3158 17.7251 64.2666 18.0698 64.2666 18.4638C64.2666 18.8516 64.3158 19.1932 64.4143 19.4886C64.5159 19.7841 64.6621 20.0149 64.8529 20.1811C65.0468 20.3473 65.2838 20.4304 65.5638 20.4304ZM72.3247 20.1396L72.3339 17.4482H72.6478L74.6421 14.9091H77.1997L74.2359 18.5469H73.6404L72.3247 20.1396ZM70.2888 22V12.5455H72.5463V22H70.2888ZM74.6929 22L72.8371 19.0547L74.3236 17.4528L77.3012 22H74.6929Z" fill="url(#paint0_linear_203_29)"/>
<path d="M3.68109 4.89462C3.09001 2.98948 4.1607 0.983803 6.07255 0.414803V0.414803L11.3853 17.5384C11.9764 19.4435 10.9057 21.4492 8.99383 22.0182V22.0182L3.68109 4.89462Z" fill="#A0E9D5" fill-opacity="0.8"/>
<path d="M13.2973 11.6245C12.3899 9.83916 13.1127 7.67844 14.9117 6.79841V6.79841L20.3684 17.5345C21.2758 19.3199 20.553 21.4806 18.754 22.3606V22.3606L13.2973 11.6245Z" fill="#A0E9D5" fill-opacity="0.8"/>
<path d="M1.56071 4.22388C1.77231 1.8911 3.83587 0.160982 6.1698 0.359563V0.359563L4.4175 19.6774C4.3117 20.8438 3.27992 21.7089 2.11295 21.6096V21.6096C0.945991 21.5103 0.0857488 20.4842 0.191551 19.3178L1.56071 4.22388Z" fill="#28BF96"/>
<path d="M10.0392 10.5779C10.2508 8.2451 12.3144 6.51499 14.6483 6.71357V6.71357L13.6039 18.2276C13.3923 20.5604 11.3287 22.2905 8.9948 22.0919V22.0919L10.0392 10.5779Z" fill="#28BF96"/>
<path d="M19.327 14.2301C19.4328 13.0637 20.4646 12.1987 21.6315 12.2979V12.2979C22.7985 12.3972 23.6587 13.4233 23.5529 14.5897L23.1793 18.7092C22.9677 21.042 20.9041 22.7721 18.5702 22.5735V22.5735L19.327 14.2301Z" fill="#28BF96"/>
<defs>
<linearGradient id="paint0_linear_203_29" x1="29.3699" y1="17.5" x2="83.0011" y2="17.8156" gradientUnits="userSpaceOnUse">
<stop offset="0.173083" stop-color="#28BF96"/>
<stop offset="1" stop-color="#6BD4B7" stop-opacity="0.51"/>
</linearGradient>
</defs>
</svg>
